<svg xmlns="http://www.w3.org/2000/svg" width="35" height="35" viewBox="0 0 80 80">
  <g fill="#000" fill-rule="nonzero">
    <path d="M57 46.5H13c-1.9329966 0-3.5 1.5670034-3.5 3.5v14c0 1.9329966 1.5670034 3.5 3.5 3.5h44c1.9329966 0 3.5-1.5670034 3.5-3.5V50c0-1.9329966-1.5670034-3.5-3.5-3.5zm-44 3h44c.2761424 0 .5.2238576.5.5v14c0 .2761424-.2238576.5-.5.5H13c-.2761424 0-.5-.2238576-.5-.5V50c0-.2761424.2238576-.5.5-.5zM47.5 31c-2.4852814 0-4.5 2.0147186-4.5 4.5s2.0147186 4.5 4.5 4.5 4.5-2.0147186 4.5-4.5-2.0147186-4.5-4.5-4.5zm0 3c.8284271 0 1.5.6715729 1.5 1.5s-.6715729 1.5-1.5 1.5-1.5-.6715729-1.5-1.5.6715729-1.5 1.5-1.5z"/>
    <path d="M47.5 41c.7796961 0 1.4204487.5948881 1.4931334 1.35554L49 42.5v4c0 .8284271-.6715729 1.5-1.5 1.5-.7796961 0-1.4204487-.5948881-1.4931334-1.35554L46 46.5v-4c0-.8284271.6715729-1.5 1.5-1.5zM25 55.5c.8284271 0 1.5.6715729 1.5 1.5 0 .7796961-.5948881 1.4204487-1.35554 1.4931334L25 58.5h-8c-.8284271 0-1.5-.6715729-1.5-1.5 0-.7796961.5948881-1.4204487 1.35554-1.4931334L17 55.5h8zM31.5 55.5c.8284271 0 1.5.6715729 1.5 1.5 0 .7796961-.5948881 1.4204487-1.35554 1.4931334L31.5 58.5H31c-.8284271 0-1.5-.6715729-1.5-1.5 0-.7796961.5948881-1.4204487 1.35554-1.4931334L31 55.5h.5zM37.5 55.5c.8284271 0 1.5.6715729 1.5 1.5 0 .7796961-.5948881 1.4204487-1.35554 1.4931334L37.5 58.5H37c-.8284271 0-1.5-.6715729-1.5-1.5 0-.7796961.5948881-1.4204487 1.35554-1.4931334L37 55.5h.5zM47 17.5c9.6649831 0 17.5 7.8350169 17.5 17.5 0 .8284271-.6715729 1.5-1.5 1.5s-1.5-.6715729-1.5-1.5c0-8.0081289-6.4918711-14.5-14.5-14.5-8.0081289 0-14.5 6.4918711-14.5 14.5 0 .8284271-.6715729 1.5-1.5 1.5s-1.5-.6715729-1.5-1.5c0-9.6649831 7.8350169-17.5 17.5-17.5z"/>
    <path d="M47 8.5c14.6355459 0 26.5 11.8644541 26.5 26.5 0 .8284271-.6715729 1.5-1.5 1.5s-1.5-.6715729-1.5-1.5c0-12.9786916-10.5213084-23.5-23.5-23.5S23.5 22.0213084 23.5 35c0 .8284271-.6715729 1.5-1.5 1.5s-1.5-.6715729-1.5-1.5C20.5 20.3644541 32.3644541 8.5 47 8.5z"/>
  </g>
</svg>